<?xml version="1.0" encoding="UTF-8" standalone="no"?>
<!DOCTYPE svg PUBLIC "-//W3C//DTD SVG 1.1//EN"
 "http://www.w3.org/Graphics/SVG/1.1/DTD/svg11.dtd">
<!-- Generated by graphviz version 5.0.0 (20220707.1540)
 -->
<!-- Title: dependencies Pages: 1 -->
<svg width="650pt" height="174pt"
 viewBox="0.00 0.00 650.00 173.80" xmlns="http://www.w3.org/2000/svg" xmlns:xlink="http://www.w3.org/1999/xlink">
<g id="graph0" class="graph" transform="scale(1 1) rotate(0) translate(4 169.8)">
<title>dependencies</title>
<polygon fill="white" stroke="transparent" points="-4,4 -4,-169.8 646,-169.8 646,4 -4,4"/>
<text text-anchor="middle" x="321" y="-8.2" font-family="sans-serif" font-size="14.00">dependencies</text>
<g id="clust1" class="cluster">
<title>cluster_AppModule</title>
<polygon fill="none" stroke="black" stroke-dasharray="1,5" points="8,-32.8 8,-157.8 634,-157.8 634,-32.8 8,-32.8"/>
</g>
<g id="clust3" class="cluster">
<title>cluster_AppModule_imports</title>
<polygon fill="none" stroke="black" points="154,-40.8 154,-92.8 626,-92.8 626,-40.8 154,-40.8"/>
</g>
<g id="clust6" class="cluster">
<title>cluster_AppModule_providers</title>
<polygon fill="none" stroke="black" points="16,-40.8 16,-92.8 146,-92.8 146,-40.8 16,-40.8"/>
</g>
<!-- AuthModule -->
<g id="node1" class="node">
<title>AuthModule</title>
<polygon fill="#8dd3c7" stroke="black" points="617.55,-84.8 614.55,-88.8 593.55,-88.8 590.55,-84.8 530.45,-84.8 530.45,-48.8 617.55,-48.8 617.55,-84.8"/>
<text text-anchor="middle" x="574" y="-62.6" font-family="Times,serif" font-size="14.00">AuthModule</text>
</g>
<!-- AppModule -->
<g id="node5" class="node">
<title>AppModule</title>
<polygon fill="#8dd3c7" stroke="black" points="374.66,-149.8 371.66,-153.8 350.66,-153.8 347.66,-149.8 291.34,-149.8 291.34,-113.8 374.66,-113.8 374.66,-149.8"/>
<text text-anchor="middle" x="333" y="-127.6" font-family="Times,serif" font-size="14.00">AppModule</text>
</g>
<!-- AuthModule&#45;&gt;AppModule -->
<g id="edge1" class="edge">
<title>AuthModule&#45;&gt;AppModule</title>
<path fill="none" stroke="black" d="M574,-85.08C574,-106.12 574,-137.8 574,-137.8 574,-137.8 384.7,-137.8 384.7,-137.8"/>
<polygon fill="black" stroke="black" points="384.7,-134.3 374.7,-137.8 384.7,-141.3 384.7,-134.3"/>
</g>
<!-- ClientModule -->
<g id="node2" class="node">
<title>ClientModule</title>
<polygon fill="#8dd3c7" stroke="black" points="511.77,-84.8 508.77,-88.8 487.77,-88.8 484.77,-84.8 418.23,-84.8 418.23,-48.8 511.77,-48.8 511.77,-84.8"/>
<text text-anchor="middle" x="465" y="-62.6" font-family="Times,serif" font-size="14.00">ClientModule</text>
</g>
<!-- ClientModule&#45;&gt;AppModule -->
<g id="edge2" class="edge">
<title>ClientModule&#45;&gt;AppModule</title>
<path fill="none" stroke="black" d="M465,-84.82C465,-102.17 465,-125.8 465,-125.8 465,-125.8 384.77,-125.8 384.77,-125.8"/>
<polygon fill="black" stroke="black" points="384.77,-122.3 374.77,-125.8 384.77,-129.3 384.77,-122.3"/>
</g>
<!-- TrackingtimeModule -->
<g id="node3" class="node">
<title>TrackingtimeModule</title>
<polygon fill="#8dd3c7" stroke="black" points="400.47,-84.8 397.47,-88.8 376.47,-88.8 373.47,-84.8 265.53,-84.8 265.53,-48.8 400.47,-48.8 400.47,-84.8"/>
<text text-anchor="middle" x="333" y="-62.6" font-family="Times,serif" font-size="14.00">TrackingtimeModule</text>
</g>
<!-- TrackingtimeModule&#45;&gt;AppModule -->
<g id="edge3" class="edge">
<title>TrackingtimeModule&#45;&gt;AppModule</title>
<path fill="none" stroke="black" d="M333,-84.91C333,-84.91 333,-103.79 333,-103.79"/>
<polygon fill="black" stroke="black" points="329.5,-103.79 333,-113.79 336.5,-103.79 329.5,-103.79"/>
</g>
<!-- UserModule -->
<g id="node4" class="node">
<title>UserModule</title>
<polygon fill="#8dd3c7" stroke="black" points="247.99,-84.8 244.99,-88.8 223.99,-88.8 220.99,-84.8 162.01,-84.8 162.01,-48.8 247.99,-48.8 247.99,-84.8"/>
<text text-anchor="middle" x="205" y="-62.6" font-family="Times,serif" font-size="14.00">UserModule</text>
</g>
<!-- UserModule&#45;&gt;AppModule -->
<g id="edge4" class="edge">
<title>UserModule&#45;&gt;AppModule</title>
<path fill="none" stroke="black" d="M205,-84.82C205,-102.17 205,-125.8 205,-125.8 205,-125.8 281.09,-125.8 281.09,-125.8"/>
<polygon fill="black" stroke="black" points="281.09,-129.3 291.09,-125.8 281.09,-122.3 281.09,-129.3"/>
</g>
<!-- AppService -->
<g id="node6" class="node">
<title>AppService</title>
<ellipse fill="#fdb462" stroke="black" cx="81" cy="-66.8" rx="56.75" ry="18"/>
<text text-anchor="middle" x="81" y="-62.6" font-family="Times,serif" font-size="14.00">AppService</text>
</g>
<!-- AppService&#45;&gt;AppModule -->
<g id="edge5" class="edge">
<title>AppService&#45;&gt;AppModule</title>
<path fill="none" stroke="black" d="M81,-85.08C81,-106.12 81,-137.8 81,-137.8 81,-137.8 281.1,-137.8 281.1,-137.8"/>
<polygon fill="black" stroke="black" points="281.1,-141.3 291.1,-137.8 281.1,-134.3 281.1,-141.3"/>
</g>
</g>
</svg>
