<?xml version="1.0" encoding="UTF-8" standalone="no"?>
<!DOCTYPE svg PUBLIC "-//W3C//DTD SVG 1.1//EN"
 "http://www.w3.org/Graphics/SVG/1.1/DTD/svg11.dtd">
<!-- Generated by graphviz version 5.0.0 (20220707.1540)
 -->
<!-- Title: dependencies Pages: 1 -->
<svg width="2177pt" height="337pt"
 viewBox="0.00 0.00 2177.00 336.80" xmlns="http://www.w3.org/2000/svg" xmlns:xlink="http://www.w3.org/1999/xlink">
<g id="graph0" class="graph" transform="scale(1 1) rotate(0) translate(4 332.8)">
<title>dependencies</title>
<polygon fill="white" stroke="transparent" points="-4,4 -4,-332.8 2173,-332.8 2173,4 -4,4"/>
<text text-anchor="middle" x="1084.5" y="-8.2" font-family="sans-serif" font-size="14.00">dependencies</text>
<g id="clust1" class="cluster">
<title>cluster_AppModule</title>
<polygon fill="none" stroke="black" stroke-dasharray="1,5" points="447,-32.8 447,-244.8 889,-244.8 889,-32.8 447,-32.8"/>
</g>
<g id="clust3" class="cluster">
<title>cluster_AppModule_imports</title>
<polygon fill="none" stroke="black" points="593,-40.8 593,-168.8 849,-168.8 849,-40.8 593,-40.8"/>
</g>
<g id="clust6" class="cluster">
<title>cluster_AppModule_providers</title>
<polygon fill="none" stroke="black" points="455,-116.8 455,-168.8 585,-168.8 585,-116.8 455,-116.8"/>
</g>
<g id="clust7" class="cluster">
<title>cluster_AuthModule</title>
<polygon fill="none" stroke="black" stroke-dasharray="1,5" points="8,-32.8 8,-100.8 439,-100.8 439,-32.8 8,-32.8"/>
</g>
<g id="clust12" class="cluster">
<title>cluster_AuthModule_providers</title>
<polygon fill="none" stroke="black" points="16,-40.8 16,-92.8 431,-92.8 431,-40.8 16,-40.8"/>
</g>
<g id="clust13" class="cluster">
<title>cluster_ClientModule</title>
<polygon fill="none" stroke="black" stroke-dasharray="1,5" points="1613,-108.8 1613,-176.8 1893,-176.8 1893,-108.8 1613,-108.8"/>
</g>
<g id="clust16" class="cluster">
<title>cluster_ClientModule_exports</title>
<polygon fill="none" stroke="black" points="1773,-116.8 1773,-168.8 1885,-168.8 1885,-116.8 1773,-116.8"/>
</g>
<g id="clust18" class="cluster">
<title>cluster_ClientModule_providers</title>
<polygon fill="none" stroke="black" points="1621,-116.8 1621,-168.8 1765,-168.8 1765,-116.8 1621,-116.8"/>
</g>
<g id="clust19" class="cluster">
<title>cluster_LanguageSeederModule</title>
<polygon fill="none" stroke="black" stroke-dasharray="1,5" points="1403,-108.8 1403,-320.8 1605,-320.8 1605,-108.8 1403,-108.8"/>
</g>
<g id="clust22" class="cluster">
<title>cluster_LanguageSeederModule_exports</title>
<polygon fill="none" stroke="black" points="1424,-260.8 1424,-312.8 1566,-312.8 1566,-260.8 1424,-260.8"/>
</g>
<g id="clust24" class="cluster">
<title>cluster_LanguageSeederModule_providers</title>
<polygon fill="none" stroke="black" points="1411,-116.8 1411,-168.8 1597,-168.8 1597,-116.8 1411,-116.8"/>
</g>
<g id="clust25" class="cluster">
<title>cluster_SeederModule</title>
<polygon fill="none" stroke="black" stroke-dasharray="1,5" points="897,-184.8 897,-312.8 1011,-312.8 1011,-184.8 897,-184.8"/>
</g>
<g id="clust30" class="cluster">
<title>cluster_SeederModule_providers</title>
<polygon fill="none" stroke="black" points="909,-192.8 909,-244.8 999,-244.8 999,-192.8 909,-192.8"/>
</g>
<g id="clust31" class="cluster">
<title>cluster_TrackingtimeModule</title>
<polygon fill="none" stroke="black" stroke-dasharray="1,5" points="1019,-184.8 1019,-252.8 1395,-252.8 1395,-184.8 1019,-184.8"/>
</g>
<g id="clust34" class="cluster">
<title>cluster_TrackingtimeModule_exports</title>
<polygon fill="none" stroke="black" points="1235,-192.8 1235,-244.8 1387,-244.8 1387,-192.8 1235,-192.8"/>
</g>
<g id="clust36" class="cluster">
<title>cluster_TrackingtimeModule_providers</title>
<polygon fill="none" stroke="black" points="1027,-192.8 1027,-244.8 1227,-244.8 1227,-192.8 1027,-192.8"/>
</g>
<g id="clust37" class="cluster">
<title>cluster_UserModule</title>
<polygon fill="none" stroke="black" stroke-dasharray="1,5" points="1901,-108.8 1901,-176.8 2161,-176.8 2161,-108.8 1901,-108.8"/>
</g>
<g id="clust40" class="cluster">
<title>cluster_UserModule_exports</title>
<polygon fill="none" stroke="black" points="2049,-116.8 2049,-168.8 2153,-168.8 2153,-116.8 2049,-116.8"/>
</g>
<g id="clust42" class="cluster">
<title>cluster_UserModule_providers</title>
<polygon fill="none" stroke="black" points="1909,-116.8 1909,-168.8 2041,-168.8 2041,-116.8 1909,-116.8"/>
</g>
<!-- AuthModule -->
<g id="node1" class="node">
<title>AuthModule</title>
<polygon fill="#8dd3c7" stroke="black" points="688.55,-160.8 685.55,-164.8 664.55,-164.8 661.55,-160.8 601.45,-160.8 601.45,-124.8 688.55,-124.8 688.55,-160.8"/>
<text text-anchor="middle" x="645" y="-138.6" font-family="Times,serif" font-size="14.00">AuthModule</text>
</g>
<!-- AppModule -->
<g id="node5" class="node">
<title>AppModule</title>
<polygon fill="#8dd3c7" stroke="black" points="847.66,-236.8 844.66,-240.8 823.66,-240.8 820.66,-236.8 764.34,-236.8 764.34,-200.8 847.66,-200.8 847.66,-236.8"/>
<text text-anchor="middle" x="806" y="-214.6" font-family="Times,serif" font-size="14.00">AppModule</text>
</g>
<!-- AuthModule&#45;&gt;AppModule -->
<g id="edge1" class="edge">
<title>AuthModule&#45;&gt;AppModule</title>
<path fill="none" stroke="black" d="M645,-160.81C645,-183.29 645,-218.8 645,-218.8 645,-218.8 754.12,-218.8 754.12,-218.8"/>
<polygon fill="black" stroke="black" points="754.12,-222.3 764.12,-218.8 754.12,-215.3 754.12,-222.3"/>
</g>
<!-- ClientModule -->
<g id="node2" class="node">
<title>ClientModule</title>
<polygon fill="#8dd3c7" stroke="black" points="736.77,-84.8 733.77,-88.8 712.77,-88.8 709.77,-84.8 643.23,-84.8 643.23,-48.8 736.77,-48.8 736.77,-84.8"/>
<text text-anchor="middle" x="690" y="-62.6" font-family="Times,serif" font-size="14.00">ClientModule</text>
</g>
<!-- TrackingtimeModule -->
<g id="node3" class="node">
<title>TrackingtimeModule</title>
<polygon fill="#8dd3c7" stroke="black" points="841.47,-160.8 838.47,-164.8 817.47,-164.8 814.47,-160.8 706.53,-160.8 706.53,-124.8 841.47,-124.8 841.47,-160.8"/>
<text text-anchor="middle" x="774" y="-138.6" font-family="Times,serif" font-size="14.00">TrackingtimeModule</text>
</g>
<!-- ClientModule&#45;&gt;TrackingtimeModule -->
<g id="edge17" class="edge">
<title>ClientModule&#45;&gt;TrackingtimeModule</title>
<path fill="none" stroke="black" d="M714.11,-84.81C714.11,-84.81 714.11,-114.65 714.11,-114.65"/>
<polygon fill="black" stroke="black" points="710.61,-114.65 714.11,-124.65 717.61,-114.65 710.61,-114.65"/>
</g>
<!-- ClientModule&#45;&gt;AppModule -->
<g id="edge2" class="edge">
<title>ClientModule&#45;&gt;AppModule</title>
<path fill="none" stroke="black" d="M697.65,-84.91C697.65,-123.39 697.65,-209.8 697.65,-209.8 697.65,-209.8 754.11,-209.8 754.11,-209.8"/>
<polygon fill="black" stroke="black" points="754.11,-213.3 764.11,-209.8 754.11,-206.3 754.11,-213.3"/>
</g>
<!-- ClientService  -->
<g id="node10" class="node">
<title>ClientService </title>
<polygon fill="#fb8072" stroke="black" points="1876.7,-160.8 1781.3,-160.8 1781.3,-124.8 1876.7,-124.8 1876.7,-160.8"/>
<text text-anchor="middle" x="1829" y="-138.6" font-family="Times,serif" font-size="14.00">ClientService </text>
</g>
<!-- ClientModule&#45;&gt;ClientService  -->
<g id="edge10" class="edge">
<title>ClientModule&#45;&gt;ClientService </title>
<path fill="none" stroke="black" stroke-dasharray="5,2" d="M721.7,-84.97C721.7,-88.85 721.7,-91.8 721.7,-91.8 721.7,-91.8 1829,-91.8 1829,-91.8 1829,-91.8 1829,-114.68 1829,-114.68"/>
<polygon fill="black" stroke="black" points="1825.5,-114.68 1829,-124.68 1832.5,-114.68 1825.5,-114.68"/>
</g>
<!-- TrackingtimeModule&#45;&gt;AppModule -->
<g id="edge3" class="edge">
<title>TrackingtimeModule&#45;&gt;AppModule</title>
<path fill="none" stroke="black" d="M802.83,-160.81C802.83,-160.81 802.83,-190.65 802.83,-190.65"/>
<polygon fill="black" stroke="black" points="799.33,-190.65 802.83,-200.65 806.33,-190.65 799.33,-190.65"/>
</g>
<!-- TrackingtimeService  -->
<g id="node17" class="node">
<title>TrackingtimeService </title>
<polygon fill="#fb8072" stroke="black" points="1379.39,-236.8 1242.61,-236.8 1242.61,-200.8 1379.39,-200.8 1379.39,-236.8"/>
<text text-anchor="middle" x="1311" y="-214.6" font-family="Times,serif" font-size="14.00">TrackingtimeService </text>
</g>
<!-- TrackingtimeModule&#45;&gt;TrackingtimeService  -->
<g id="edge18" class="edge">
<title>TrackingtimeModule&#45;&gt;TrackingtimeService </title>
<path fill="none" stroke="black" stroke-dasharray="5,2" d="M841.47,-136.8C985.69,-136.8 1311,-136.8 1311,-136.8 1311,-136.8 1311,-190.6 1311,-190.6"/>
<polygon fill="black" stroke="black" points="1307.5,-190.6 1311,-200.6 1314.5,-190.6 1307.5,-190.6"/>
</g>
<!-- UserModule -->
<g id="node4" class="node">
<title>UserModule</title>
<polygon fill="#8dd3c7" stroke="black" points="840.99,-84.8 837.99,-88.8 816.99,-88.8 813.99,-84.8 755.01,-84.8 755.01,-48.8 840.99,-48.8 840.99,-84.8"/>
<text text-anchor="middle" x="798" y="-62.6" font-family="Times,serif" font-size="14.00">UserModule</text>
</g>
<!-- UserModule&#45;&gt;AuthModule -->
<g id="edge6" class="edge">
<title>UserModule&#45;&gt;AuthModule</title>
<path fill="none" stroke="black" d="M798,-84.99C798,-99.98 798,-118.8 798,-118.8 798,-118.8 665.94,-118.8 665.94,-118.8 665.94,-118.8 665.94,-119.38 665.94,-119.38"/>
<polygon fill="black" stroke="black" points="662.45,-114.61 665.94,-124.61 669.45,-114.61 662.45,-114.61"/>
</g>
<!-- UserModule&#45;&gt;AppModule -->
<g id="edge4" class="edge">
<title>UserModule&#45;&gt;AppModule</title>
<path fill="none" stroke="black" d="M841.39,-75.8C859.54,-75.8 876.51,-75.8 876.51,-75.8 876.51,-75.8 876.51,-212.8 876.51,-212.8 876.51,-212.8 857.83,-212.8 857.83,-212.8"/>
<polygon fill="black" stroke="black" points="857.83,-209.3 847.83,-212.8 857.83,-216.3 857.83,-209.3"/>
</g>
<!-- UserService  -->
<g id="node19" class="node">
<title>UserService </title>
<polygon fill="#fb8072" stroke="black" points="2144.91,-160.8 2057.09,-160.8 2057.09,-124.8 2144.91,-124.8 2144.91,-160.8"/>
<text text-anchor="middle" x="2101" y="-138.6" font-family="Times,serif" font-size="14.00">UserService </text>
</g>
<!-- UserModule&#45;&gt;UserService  -->
<g id="edge20" class="edge">
<title>UserModule&#45;&gt;UserService </title>
<path fill="none" stroke="black" stroke-dasharray="5,2" d="M841.35,-57.8C1067.44,-57.8 2101,-57.8 2101,-57.8 2101,-57.8 2101,-114.77 2101,-114.77"/>
<polygon fill="black" stroke="black" points="2097.5,-114.77 2101,-124.77 2104.5,-114.77 2097.5,-114.77"/>
</g>
<!-- SeederModule -->
<g id="node15" class="node">
<title>SeederModule</title>
<polygon fill="#8dd3c7" stroke="black" points="1002.64,-304.8 999.64,-308.8 978.64,-308.8 975.64,-304.8 905.36,-304.8 905.36,-268.8 1002.64,-268.8 1002.64,-304.8"/>
<text text-anchor="middle" x="954" y="-282.6" font-family="Times,serif" font-size="14.00">SeederModule</text>
</g>
<!-- AppModule&#45;&gt;SeederModule -->
<g id="edge14" class="edge">
<title>AppModule&#45;&gt;SeederModule</title>
<path fill="none" stroke="black" d="M847.77,-224.8C877.04,-224.8 910.93,-224.8 910.93,-224.8 910.93,-224.8 910.93,-258.53 910.93,-258.53"/>
<polygon fill="black" stroke="black" points="907.43,-258.53 910.93,-268.53 914.43,-258.53 907.43,-258.53"/>
</g>
<!-- AppService -->
<g id="node6" class="node">
<title>AppService</title>
<ellipse fill="#fdb462" stroke="black" cx="520" cy="-142.8" rx="56.75" ry="18"/>
<text text-anchor="middle" x="520" y="-138.6" font-family="Times,serif" font-size="14.00">AppService</text>
</g>
<!-- AppService&#45;&gt;AppModule -->
<g id="edge5" class="edge">
<title>AppService&#45;&gt;AppModule</title>
<path fill="none" stroke="black" d="M520,-160.83C520,-185.78 520,-227.8 520,-227.8 520,-227.8 754.11,-227.8 754.11,-227.8"/>
<polygon fill="black" stroke="black" points="754.11,-231.3 764.11,-227.8 754.11,-224.3 754.11,-231.3"/>
</g>
<!-- AuthService -->
<g id="node7" class="node">
<title>AuthService</title>
<ellipse fill="#fdb462" stroke="black" cx="215" cy="-66.8" rx="59.11" ry="18"/>
<text text-anchor="middle" x="215" y="-62.6" font-family="Times,serif" font-size="14.00">AuthService</text>
</g>
<!-- AuthService&#45;&gt;AuthModule -->
<g id="edge7" class="edge">
<title>AuthService&#45;&gt;AuthModule</title>
<path fill="none" stroke="black" d="M215,-84.91C215,-94.7 215,-104.8 215,-104.8 215,-104.8 622.17,-104.8 622.17,-104.8 622.17,-104.8 622.17,-114.69 622.17,-114.69"/>
<polygon fill="black" stroke="black" points="618.67,-114.69 622.17,-124.69 625.67,-114.69 618.67,-114.69"/>
</g>
<!-- JwtStrategy -->
<g id="node8" class="node">
<title>JwtStrategy</title>
<ellipse fill="#fdb462" stroke="black" cx="81" cy="-66.8" rx="56.77" ry="18"/>
<text text-anchor="middle" x="81" y="-62.6" font-family="Times,serif" font-size="14.00">JwtStrategy</text>
</g>
<!-- JwtStrategy&#45;&gt;AuthModule -->
<g id="edge8" class="edge">
<title>JwtStrategy&#45;&gt;AuthModule</title>
<path fill="none" stroke="black" d="M81,-84.84C81,-97.36 81,-111.8 81,-111.8 81,-111.8 611.7,-111.8 611.7,-111.8 611.7,-111.8 611.7,-114.77 611.7,-114.77"/>
<polygon fill="black" stroke="black" points="608.2,-114.77 611.7,-124.77 615.2,-114.77 608.2,-114.77"/>
</g>
<!-- LocalStrategy -->
<g id="node9" class="node">
<title>LocalStrategy</title>
<ellipse fill="#fdb462" stroke="black" cx="358" cy="-66.8" rx="65.4" ry="18"/>
<text text-anchor="middle" x="358" y="-62.6" font-family="Times,serif" font-size="14.00">LocalStrategy</text>
</g>
<!-- LocalStrategy&#45;&gt;AuthModule -->
<g id="edge9" class="edge">
<title>LocalStrategy&#45;&gt;AuthModule</title>
<path fill="none" stroke="black" d="M423.43,-66.8C504.67,-66.8 632.64,-66.8 632.64,-66.8 632.64,-66.8 632.64,-114.79 632.64,-114.79"/>
<polygon fill="black" stroke="black" points="629.14,-114.79 632.64,-124.79 636.14,-114.79 629.14,-114.79"/>
</g>
<!-- ClientService -->
<g id="node11" class="node">
<title>ClientService</title>
<ellipse fill="#fdb462" stroke="black" cx="1693" cy="-142.8" rx="63.7" ry="18"/>
<text text-anchor="middle" x="1693" y="-138.6" font-family="Times,serif" font-size="14.00">ClientService</text>
</g>
<!-- ClientService&#45;&gt;ClientModule -->
<g id="edge11" class="edge">
<title>ClientService&#45;&gt;ClientModule</title>
<path fill="none" stroke="black" d="M1693,-124.65C1693,-112.53 1693,-98.8 1693,-98.8 1693,-98.8 729.29,-98.8 729.29,-98.8 729.29,-98.8 729.29,-95.04 729.29,-95.04"/>
<polygon fill="black" stroke="black" points="732.79,-95.04 729.29,-85.04 725.79,-95.04 732.79,-95.04"/>
</g>
<!-- UserSeederService  -->
<g id="node12" class="node">
<title>UserSeederService </title>
<polygon fill="#fb8072" stroke="black" points="1558,-304.8 1432,-304.8 1432,-268.8 1558,-268.8 1558,-304.8"/>
<text text-anchor="middle" x="1495" y="-282.6" font-family="Times,serif" font-size="14.00">UserSeederService </text>
</g>
<!-- LanguageSeederModule -->
<g id="node13" class="node">
<title>LanguageSeederModule</title>
<polygon fill="#8dd3c7" stroke="black" points="1571.34,-236.8 1568.34,-240.8 1547.34,-240.8 1544.34,-236.8 1418.66,-236.8 1418.66,-200.8 1571.34,-200.8 1571.34,-236.8"/>
<text text-anchor="middle" x="1495" y="-214.6" font-family="Times,serif" font-size="14.00">LanguageSeederModule</text>
</g>
<!-- LanguageSeederModule&#45;&gt;UserSeederService  -->
<g id="edge12" class="edge">
<title>LanguageSeederModule&#45;&gt;UserSeederService </title>
<path fill="none" stroke="black" stroke-dasharray="5,2" d="M1495,-237.02C1495,-237.02 1495,-258.53 1495,-258.53"/>
<polygon fill="black" stroke="black" points="1491.5,-258.53 1495,-268.53 1498.5,-258.53 1491.5,-258.53"/>
</g>
<!-- LanguageSeederModule&#45;&gt;SeederModule -->
<g id="edge15" class="edge">
<title>LanguageSeederModule&#45;&gt;SeederModule</title>
<path fill="none" stroke="black" d="M1425.29,-237.02C1425.29,-257.17 1425.29,-286.8 1425.29,-286.8 1425.29,-286.8 1012.66,-286.8 1012.66,-286.8"/>
<polygon fill="black" stroke="black" points="1012.66,-283.3 1002.66,-286.8 1012.66,-290.3 1012.66,-283.3"/>
</g>
<!-- UserSeederService -->
<g id="node14" class="node">
<title>UserSeederService</title>
<ellipse fill="#fdb462" stroke="black" cx="1504" cy="-142.8" rx="84.5" ry="18"/>
<text text-anchor="middle" x="1504" y="-138.6" font-family="Times,serif" font-size="14.00">UserSeederService</text>
</g>
<!-- UserSeederService&#45;&gt;LanguageSeederModule -->
<g id="edge13" class="edge">
<title>UserSeederService&#45;&gt;LanguageSeederModule</title>
<path fill="none" stroke="black" d="M1495.46,-160.81C1495.46,-160.81 1495.46,-190.65 1495.46,-190.65"/>
<polygon fill="black" stroke="black" points="1491.96,-190.65 1495.46,-200.65 1498.96,-190.65 1491.96,-190.65"/>
</g>
<!-- Seeder -->
<g id="node16" class="node">
<title>Seeder</title>
<ellipse fill="#fdb462" stroke="black" cx="954" cy="-218.8" rx="37.12" ry="18"/>
<text text-anchor="middle" x="954" y="-214.6" font-family="Times,serif" font-size="14.00">Seeder</text>
</g>
<!-- Seeder&#45;&gt;SeederModule -->
<g id="edge16" class="edge">
<title>Seeder&#45;&gt;SeederModule</title>
<path fill="none" stroke="black" d="M954,-237.02C954,-237.02 954,-258.53 954,-258.53"/>
<polygon fill="black" stroke="black" points="950.5,-258.53 954,-268.53 957.5,-258.53 950.5,-258.53"/>
</g>
<!-- TrackingtimeService -->
<g id="node18" class="node">
<title>TrackingtimeService</title>
<ellipse fill="#fdb462" stroke="black" cx="1127" cy="-218.8" rx="92.02" ry="18"/>
<text text-anchor="middle" x="1127" y="-214.6" font-family="Times,serif" font-size="14.00">TrackingtimeService</text>
</g>
<!-- TrackingtimeService&#45;&gt;TrackingtimeModule -->
<g id="edge19" class="edge">
<title>TrackingtimeService&#45;&gt;TrackingtimeModule</title>
<path fill="none" stroke="black" d="M1127,-200.77C1127,-180.03 1127,-148.8 1127,-148.8 1127,-148.8 851.64,-148.8 851.64,-148.8"/>
<polygon fill="black" stroke="black" points="851.64,-145.3 841.64,-148.8 851.64,-152.3 851.64,-145.3"/>
</g>
<!-- UserService -->
<g id="node20" class="node">
<title>UserService</title>
<ellipse fill="#fdb462" stroke="black" cx="1975" cy="-142.8" rx="58.46" ry="18"/>
<text text-anchor="middle" x="1975" y="-138.6" font-family="Times,serif" font-size="14.00">UserService</text>
</g>
<!-- UserService&#45;&gt;UserModule -->
<g id="edge21" class="edge">
<title>UserService&#45;&gt;UserModule</title>
<path fill="none" stroke="black" d="M1975,-124.79C1975,-102.31 1975,-66.8 1975,-66.8 1975,-66.8 851.29,-66.8 851.29,-66.8"/>
<polygon fill="black" stroke="black" points="851.29,-63.3 841.29,-66.8 851.29,-70.3 851.29,-63.3"/>
</g>
</g>
</svg>
