<?xml version="1.0" encoding="UTF-8" standalone="no"?>
<!DOCTYPE svg PUBLIC "-//W3C//DTD SVG 1.1//EN"
 "http://www.w3.org/Graphics/SVG/1.1/DTD/svg11.dtd">
<!-- Generated by graphviz version 5.0.0 (20220707.1540)
 -->
<!-- Title: dependencies Pages: 1 -->
<svg width="358pt" height="247pt"
 viewBox="0.00 0.00 358.00 246.80" xmlns="http://www.w3.org/2000/svg" xmlns:xlink="http://www.w3.org/1999/xlink">
<g id="graph0" class="graph" transform="scale(1 1) rotate(0) translate(4 242.8)">
<title>dependencies</title>
<polygon fill="white" stroke="transparent" points="-4,4 -4,-242.8 354,-242.8 354,4 -4,4"/>
<text text-anchor="middle" x="175" y="-8.2" font-family="sans-serif" font-size="14.00">dependencies</text>
<g id="clust1" class="cluster">
<title>cluster_TrackingtimeModule</title>
<polygon fill="none" stroke="black" stroke-dasharray="1,5" points="8,-32.8 8,-230.8 342,-230.8 342,-32.8 8,-32.8"/>
</g>
<g id="clust3" class="cluster">
<title>cluster_TrackingtimeModule_imports</title>
<polygon fill="none" stroke="black" points="224,-40.8 224,-92.8 334,-92.8 334,-40.8 224,-40.8"/>
</g>
<g id="clust4" class="cluster">
<title>cluster_TrackingtimeModule_exports</title>
<polygon fill="none" stroke="black" points="111,-170.8 111,-222.8 263,-222.8 263,-170.8 111,-170.8"/>
</g>
<g id="clust6" class="cluster">
<title>cluster_TrackingtimeModule_providers</title>
<polygon fill="none" stroke="black" points="16,-40.8 16,-92.8 216,-92.8 216,-40.8 16,-40.8"/>
</g>
<!-- ClientModule -->
<g id="node1" class="node">
<title>ClientModule</title>
<polygon fill="#8dd3c7" stroke="black" points="325.77,-84.8 322.77,-88.8 301.77,-88.8 298.77,-84.8 232.23,-84.8 232.23,-48.8 325.77,-48.8 325.77,-84.8"/>
<text text-anchor="middle" x="279" y="-62.6" font-family="Times,serif" font-size="14.00">ClientModule</text>
</g>
<!-- TrackingtimeModule -->
<g id="node2" class="node">
<title>TrackingtimeModule</title>
<polygon fill="#8dd3c7" stroke="black" points="254.47,-149.8 251.47,-153.8 230.47,-153.8 227.47,-149.8 119.53,-149.8 119.53,-113.8 254.47,-113.8 254.47,-149.8"/>
<text text-anchor="middle" x="187" y="-127.6" font-family="Times,serif" font-size="14.00">TrackingtimeModule</text>
</g>
<!-- ClientModule&#45;&gt;TrackingtimeModule -->
<g id="edge1" class="edge">
<title>ClientModule&#45;&gt;TrackingtimeModule</title>
<path fill="none" stroke="black" d="M243.3,-84.91C243.3,-84.91 243.3,-103.79 243.3,-103.79"/>
<polygon fill="black" stroke="black" points="239.8,-103.79 243.3,-113.79 246.8,-103.79 239.8,-103.79"/>
</g>
<!-- TrackingtimeService  -->
<g id="node3" class="node">
<title>TrackingtimeService </title>
<polygon fill="#fb8072" stroke="black" points="255.39,-214.8 118.61,-214.8 118.61,-178.8 255.39,-178.8 255.39,-214.8"/>
<text text-anchor="middle" x="187" y="-192.6" font-family="Times,serif" font-size="14.00">TrackingtimeService </text>
</g>
<!-- TrackingtimeModule&#45;&gt;TrackingtimeService  -->
<g id="edge2" class="edge">
<title>TrackingtimeModule&#45;&gt;TrackingtimeService </title>
<path fill="none" stroke="black" stroke-dasharray="5,2" d="M187,-149.91C187,-149.91 187,-168.79 187,-168.79"/>
<polygon fill="black" stroke="black" points="183.5,-168.79 187,-178.79 190.5,-168.79 183.5,-168.79"/>
</g>
<!-- TrackingtimeService -->
<g id="node4" class="node">
<title>TrackingtimeService</title>
<ellipse fill="#fdb462" stroke="black" cx="116" cy="-66.8" rx="92.02" ry="18"/>
<text text-anchor="middle" x="116" y="-62.6" font-family="Times,serif" font-size="14.00">TrackingtimeService</text>
</g>
<!-- TrackingtimeService&#45;&gt;TrackingtimeModule -->
<g id="edge3" class="edge">
<title>TrackingtimeService&#45;&gt;TrackingtimeModule</title>
<path fill="none" stroke="black" d="M163.76,-82.2C163.76,-82.2 163.76,-103.74 163.76,-103.74"/>
<polygon fill="black" stroke="black" points="160.26,-103.74 163.76,-113.74 167.26,-103.74 160.26,-103.74"/>
</g>
</g>
</svg>
