<?xml version="1.0" encoding="UTF-8" standalone="no"?>
<!DOCTYPE svg PUBLIC "-//W3C//DTD SVG 1.1//EN"
 "http://www.w3.org/Graphics/SVG/1.1/DTD/svg11.dtd">
<!-- Generated by graphviz version 5.0.0 (20220707.1540)
 -->
<!-- Title: dependencies Pages: 1 -->
<svg width="408pt" height="174pt"
 viewBox="0.00 0.00 408.00 173.80" xmlns="http://www.w3.org/2000/svg" xmlns:xlink="http://www.w3.org/1999/xlink">
<g id="graph0" class="graph" transform="scale(1 1) rotate(0) translate(4 169.8)">
<title>dependencies</title>
<polygon fill="white" stroke="transparent" points="-4,4 -4,-169.8 404,-169.8 404,4 -4,4"/>
<text text-anchor="middle" x="200" y="-8.2" font-family="sans-serif" font-size="14.00">dependencies</text>
<g id="clust1" class="cluster">
<title>cluster_SeederModule</title>
<polygon fill="none" stroke="black" stroke-dasharray="1,5" points="8,-32.8 8,-157.8 392,-157.8 392,-32.8 8,-32.8"/>
</g>
<g id="clust6" class="cluster">
<title>cluster_SeederModule_providers</title>
<polygon fill="none" stroke="black" points="294,-40.8 294,-92.8 384,-92.8 384,-40.8 294,-40.8"/>
</g>
<g id="clust3" class="cluster">
<title>cluster_SeederModule_imports</title>
<polygon fill="none" stroke="black" points="16,-40.8 16,-92.8 286,-92.8 286,-40.8 16,-40.8"/>
</g>
<!-- AppModule -->
<g id="node1" class="node">
<title>AppModule</title>
<polygon fill="#8dd3c7" stroke="black" points="277.66,-84.8 274.66,-88.8 253.66,-88.8 250.66,-84.8 194.34,-84.8 194.34,-48.8 277.66,-48.8 277.66,-84.8"/>
<text text-anchor="middle" x="236" y="-62.6" font-family="Times,serif" font-size="14.00">AppModule</text>
</g>
<!-- SeederModule -->
<g id="node3" class="node">
<title>SeederModule</title>
<polygon fill="#8dd3c7" stroke="black" points="284.64,-149.8 281.64,-153.8 260.64,-153.8 257.64,-149.8 187.36,-149.8 187.36,-113.8 284.64,-113.8 284.64,-149.8"/>
<text text-anchor="middle" x="236" y="-127.6" font-family="Times,serif" font-size="14.00">SeederModule</text>
</g>
<!-- AppModule&#45;&gt;SeederModule -->
<g id="edge1" class="edge">
<title>AppModule&#45;&gt;SeederModule</title>
<path fill="none" stroke="black" d="M236,-84.91C236,-84.91 236,-103.79 236,-103.79"/>
<polygon fill="black" stroke="black" points="232.5,-103.79 236,-113.79 239.5,-103.79 232.5,-103.79"/>
</g>
<!-- LanguageSeederModule -->
<g id="node2" class="node">
<title>LanguageSeederModule</title>
<polygon fill="#8dd3c7" stroke="black" points="176.34,-84.8 173.34,-88.8 152.34,-88.8 149.34,-84.8 23.66,-84.8 23.66,-48.8 176.34,-48.8 176.34,-84.8"/>
<text text-anchor="middle" x="100" y="-62.6" font-family="Times,serif" font-size="14.00">LanguageSeederModule</text>
</g>
<!-- LanguageSeederModule&#45;&gt;SeederModule -->
<g id="edge2" class="edge">
<title>LanguageSeederModule&#45;&gt;SeederModule</title>
<path fill="none" stroke="black" d="M100,-84.91C100,-104.14 100,-131.8 100,-131.8 100,-131.8 177.29,-131.8 177.29,-131.8"/>
<polygon fill="black" stroke="black" points="177.29,-135.3 187.29,-131.8 177.28,-128.3 177.29,-135.3"/>
</g>
<!-- Seeder -->
<g id="node4" class="node">
<title>Seeder</title>
<ellipse fill="#fdb462" stroke="black" cx="339" cy="-66.8" rx="37.12" ry="18"/>
<text text-anchor="middle" x="339" y="-62.6" font-family="Times,serif" font-size="14.00">Seeder</text>
</g>
<!-- Seeder&#45;&gt;SeederModule -->
<g id="edge3" class="edge">
<title>Seeder&#45;&gt;SeederModule</title>
<path fill="none" stroke="black" d="M339,-84.91C339,-104.14 339,-131.8 339,-131.8 339,-131.8 294.79,-131.8 294.79,-131.8"/>
<polygon fill="black" stroke="black" points="294.79,-128.3 284.79,-131.8 294.79,-135.3 294.79,-128.3"/>
</g>
</g>
</svg>
