<?xml version="1.0" encoding="UTF-8" standalone="no"?>
<!DOCTYPE svg PUBLIC "-//W3C//DTD SVG 1.1//EN"
 "http://www.w3.org/Graphics/SVG/1.1/DTD/svg11.dtd">
<!-- Generated by graphviz version 5.0.0 (20220707.1540)
 -->
<!-- Title: dependencies Pages: 1 -->
<svg width="184pt" height="247pt"
 viewBox="0.00 0.00 184.00 246.80" xmlns="http://www.w3.org/2000/svg" xmlns:xlink="http://www.w3.org/1999/xlink">
<g id="graph0" class="graph" transform="scale(1 1) rotate(0) translate(4 242.8)">
<title>dependencies</title>
<polygon fill="white" stroke="transparent" points="-4,4 -4,-242.8 180,-242.8 180,4 -4,4"/>
<text text-anchor="middle" x="88" y="-8.2" font-family="sans-serif" font-size="14.00">dependencies</text>
<g id="clust1" class="cluster">
<title>cluster_ClientModule</title>
<polygon fill="none" stroke="black" stroke-dasharray="1,5" points="8,-32.8 8,-230.8 168,-230.8 168,-32.8 8,-32.8"/>
</g>
<g id="clust4" class="cluster">
<title>cluster_ClientModule_exports</title>
<polygon fill="none" stroke="black" points="32,-170.8 32,-222.8 144,-222.8 144,-170.8 32,-170.8"/>
</g>
<g id="clust6" class="cluster">
<title>cluster_ClientModule_providers</title>
<polygon fill="none" stroke="black" points="16,-40.8 16,-92.8 160,-92.8 160,-40.8 16,-40.8"/>
</g>
<!-- ClientService  -->
<g id="node1" class="node">
<title>ClientService </title>
<polygon fill="#fb8072" stroke="black" points="135.7,-214.8 40.3,-214.8 40.3,-178.8 135.7,-178.8 135.7,-214.8"/>
<text text-anchor="middle" x="88" y="-192.6" font-family="Times,serif" font-size="14.00">ClientService </text>
</g>
<!-- ClientModule -->
<g id="node2" class="node">
<title>ClientModule</title>
<polygon fill="#8dd3c7" stroke="black" points="134.77,-149.8 131.77,-153.8 110.77,-153.8 107.77,-149.8 41.23,-149.8 41.23,-113.8 134.77,-113.8 134.77,-149.8"/>
<text text-anchor="middle" x="88" y="-127.6" font-family="Times,serif" font-size="14.00">ClientModule</text>
</g>
<!-- ClientModule&#45;&gt;ClientService  -->
<g id="edge1" class="edge">
<title>ClientModule&#45;&gt;ClientService </title>
<path fill="none" stroke="black" stroke-dasharray="5,2" d="M88,-149.91C88,-149.91 88,-168.79 88,-168.79"/>
<polygon fill="black" stroke="black" points="84.5,-168.79 88,-178.79 91.5,-168.79 84.5,-168.79"/>
</g>
<!-- ClientService -->
<g id="node3" class="node">
<title>ClientService</title>
<ellipse fill="#fdb462" stroke="black" cx="88" cy="-66.8" rx="63.7" ry="18"/>
<text text-anchor="middle" x="88" y="-62.6" font-family="Times,serif" font-size="14.00">ClientService</text>
</g>
<!-- ClientService&#45;&gt;ClientModule -->
<g id="edge2" class="edge">
<title>ClientService&#45;&gt;ClientModule</title>
<path fill="none" stroke="black" d="M88,-84.91C88,-84.91 88,-103.79 88,-103.79"/>
<polygon fill="black" stroke="black" points="84.5,-103.79 88,-113.79 91.5,-103.79 84.5,-103.79"/>
</g>
</g>
</svg>
